<svg height="512pt" viewBox="0 0 512 512" width="512pt" xmlns="http://www.w3.org/2000/svg" xmlns:xlink="http://www.w3.org/1999/xlink"><linearGradient id="a" gradientUnits="userSpaceOnUse" x1="256" x2="256" y1="0" y2="512"><stop offset="0" stop-color="#2af598"/><stop offset="1" stop-color="#009efd"/></linearGradient><path d="m404 148c0-81.605469-66.394531-148-148-148s-148 66.394531-148 148c0 50.546875 25.480469 95.25 64.261719 121.964844-36.210938 12.492187-69.398438 33.132812-97.28125 61.015625-48.351563 48.351562-74.980469 112.640625-74.980469 181.019531h40c0-119.101562 96.898438-216 216-216 81.605469 0 148-66.394531 148-148zm-148 108c-59.550781 0-108-48.449219-108-108s48.449219-108 108-108 108 48.449219 108 108-48.449219 108-108 108zm66 135.980469h190v40h-190zm190-79.980469v40h-190v-40zm-190 160h190v40h-190zm0 0" fill="url(#a)"/></svg>